<?xml version="1.0" encoding="UTF-8" standalone="no"?>
<!-- Created with Inkscape (http://www.inkscape.org/) -->

<svg
   xmlns:dc="http://purl.org/dc/elements/1.1/"
   xmlns:cc="http://creativecommons.org/ns#"
   xmlns:rdf="http://www.w3.org/1999/02/22-rdf-syntax-ns#"
   xmlns:svg="http://www.w3.org/2000/svg"
   xmlns="http://www.w3.org/2000/svg"
   xmlns:sodipodi="http://sodipodi.sourceforge.net/DTD/sodipodi-0.dtd"
   xmlns:inkscape="http://www.inkscape.org/namespaces/inkscape"
   width="744.09448819"
   height="1052.3622047"
   id="svg2"
   version="1.1"
   inkscape:version="0.48.4 r9939"
   sodipodi:docname="New document 1">
  <defs
     id="defs4" />
  <sodipodi:namedview
     id="base"
     pagecolor="#ffffff"
     bordercolor="#666666"
     borderopacity="1.0"
     inkscape:pageopacity="0.0"
     inkscape:pageshadow="2"
     inkscape:zoom="0.37620925"
     inkscape:cx="405.19579"
     inkscape:cy="440.21064"
     inkscape:document-units="px"
     inkscape:current-layer="layer1"
     showgrid="false"
     inkscape:window-width="1920"
     inkscape:window-height="1017"
     inkscape:window-x="-8"
     inkscape:window-y="-8"
     inkscape:window-maximized="1" />
  <metadata
     id="metadata7">
    <rdf:RDF>
      <cc:Work
         rdf:about="">
        <dc:format>image/svg+xml</dc:format>
        <dc:type
           rdf:resource="http://purl.org/dc/dcmitype/StillImage" />
        <dc:title></dc:title>
      </cc:Work>
    </rdf:RDF>
  </metadata>
  <g
     inkscape:label="Layer 1"
     inkscape:groupmode="layer"
     id="layer1">
    <path
       style="fill:#8a6f91;fill-opacity:1"
       d="m 232.5625,337.3125 c -9.19885,1.33473 -18.75879,5.96177 -24.15625,13.75 -5.02527,7.61081 -4.22635,17.69385 0.34923,25.31361 16.07334,42.1988 40.409,80.83012 58.13707,122.3109 7.02449,15.64108 15.23721,31.2982 18.7012,48.00049 -1.79256,9.06866 -13.23505,11.49761 -21.125,9.5625 -10.00088,0.26014 -22.51475,5.55497 -23.65625,16.78125 4.4237,11.36678 15.19545,18.11962 21.15097,28.58941 25.39129,32.72013 54.03641,62.73365 85.03653,90.12934 26.71008,27.58422 53.55038,58.82644 91.5625,70.1875 33.44097,11.74573 66.41253,27.38219 91.59375,52.78125 6.28367,5.67549 12.80738,11.11842 20,15.59375 C 613.38231,794.06394 675.78,756.2945 738.71875,719.5 704.93383,674.31775 676.68223,624.92975 644.75,578.375 c -16.72915,-25.50913 -30.81769,-52.52605 -44.50825,-79.61121 -11.63099,-20.26299 -29.69964,-39.51036 -54.023,-42.67004 -16.78847,-2.60839 -33.54573,3.00117 -48.28125,10.34375 -10.46365,1.19385 -21.16302,-5.36692 -31.53125,-0.9375 -14.74905,3.55755 -27.16086,16.29264 -43.21875,13.875 -15.64687,-1.31948 -31.90761,3.51849 -42.8125,14.96875 -5.77819,4.93038 -9.10059,12.48081 -15.1875,16.875 -8.75365,4.04757 -19.35761,-1.53296 -22.62681,-10.20056 C 306.26447,448.51585 278.38896,390.36764 240.6875,338.75 c -2.56508,-1.07938 -5.31989,-1.6463 -8.125,-1.4375 z"
       id="path3004"
       inkscape:connector-curvature="0" />
    <path
       style="fill:#8a6f91;stroke:none;fill-opacity:1"
       d="m 522.12298,799.47429 30.43612,25.68736 47.57847,17.75348 46.86271,-16.74317 79.68835,-53.57429 24.44029,-36.24751 -12.04672,-27.80985 z"
       id="path3032"
       inkscape:connector-curvature="0" />
    <path
       style="fill:#000000"
       d="m 533.05664,825.60029 c -33.14385,-36.0276 -81.09557,-50.95106 -124.51869,-70.14309 -40.95879,-24.87051 -67.4925,-66.41377 -104.35491,-96.2293 -24.44606,-25.67201 -48.27256,-52.36388 -70.83587,-79.48451 -13.33064,-33.7268 60.9071,-16.49365 41.11973,-50.04388 -24.16931,-55.29803 -55.36281,-107.45525 -75.71393,-164.42265 -7.25339,-29.79889 36.05166,-47.62188 53.84616,-23.8752 34.47107,54.91296 64.75064,112.90148 102.54371,165.8454 22.22697,-18.82414 47.09951,-39.58611 77.0511,-35.21667 29.44986,-15.89215 63.83798,-12.68318 94.67591,-22.72128 39.00684,-6.96228 69.73799,25.43703 85.13984,57.5658 12.55717,26.77794 26.76694,52.71 45.33759,75.82681 32.0935,45.78733 60.49875,94.10579 94.18636,138.78409 -27.49308,-1.4434 -41.65652,-35.57106 -57.93486,-49.91661 0.73695,-25.21729 -19.92902,-44.03464 -31.6611,-64.53534 -12.68071,-22.1262 -36.69379,-35.74886 -45.54239,-60.05536 -12.22763,-31.77949 -24.92427,-69.48951 -60.44989,-81.85007 -12.21481,-7.4761 -51.24274,-2.73016 -43.37911,13.05162 8.57122,-0.89194 40.7219,-18.1752 25.34284,1.17441 -26.44349,20.80325 -55.51864,-20.13724 -81.70007,-4.75159 -11.28916,5.62852 -12.57777,27.84224 3.25823,13.67601 18.08991,-8.34253 18.04944,5.90831 0.60731,6.07363 -9.18224,8.10671 -31.74101,19.05172 -28.4376,-3.41966 -21.42073,-18.47915 -62.64113,8.16454 -58.45948,31.10577 7.3022,-3.78846 31.3656,-23.3731 29.10768,-8.44338 -16.4992,4.46008 -39.62084,40.79628 -50.24725,16.89171 -34.10526,-54.81952 -65.25233,-111.39337 -97.7741,-167.14904 -19.13234,10.54841 -49.34964,24.11029 -24.36596,47.54282 43.49056,88.38418 80.09691,180.19616 128.70975,265.99257 18.34607,28.47494 35.35384,62.98449 69.65554,74.6331 28.32548,10.53122 58.56949,18.37855 81.53384,39.27407 15.11932,14.00722 43.13634,29.41887 44.41927,49.03946 -8.33021,-1.65337 -15.6025,-8.08601 -21.15965,-14.21964 z M 315.80456,621.34877 c -10.14858,-20.18276 -31.81508,-68.1813 -52.97674,-53.49667 21.04969,16.42556 15.5018,44.39973 31.28267,62.27097 12.70209,11.44399 29.60615,41.91105 45.04436,37.8787 -5.87476,-16.24864 -16.31004,-30.78377 -23.35029,-46.653 z m -41.24565,-28.57366 c 2.19235,-21.33226 -46.7767,-17.75846 -18.25028,-2.00041 4.44836,5.26429 21.67458,20.73106 18.25028,2.00041 z M 243.49608,363.49856 c -0.45559,-35.62047 -51.66997,6.5672 -12.19586,10.88076 5.89248,-0.56943 10.80159,-5.27921 12.19586,-10.88076 z m 21.27168,89.02011 c 4.63068,-17.08733 27.67,-1.93186 3.92785,0.51756 l -2.03465,0.26295 -1.8932,-0.78051 z"
       id="path3002"
       inkscape:connector-curvature="0" />
    <path
       style="fill:#000000;stroke:#000000;stroke-width:1px;stroke-linecap:butt;stroke-linejoin:miter;stroke-opacity:1"
       d="m 542.91251,834.93963 c 0,0 50.36441,33.56893 131.96327,-16.76795 81.59887,-50.33689 85.73922,-87.69931 72.28579,-99.40191 -13.45346,-11.70261 -13.45346,-11.70261 -13.45346,-11.70261 0,0 16.31923,16.55873 -0.98279,46.41124 -17.302,29.8525 -95.37163,82.47154 -122.4382,80.98498 -27.06657,-1.48657 -67.58659,-14.67573 -67.58659,-14.67573 z"
       id="path3030"
       inkscape:connector-curvature="0" />
    <path
       style="fill:#8a6f91;stroke:none;fill-opacity:1"
       d="m 260.68503,469.25643 c 0,0 -65.03739,-99.11285 -46.56815,-112.19465 18.46924,-13.08181 32.95778,-10.71982 39.93639,4.80382 6.97862,15.52362 53.12283,97.4143 53.12283,97.4143 z"
       id="path3802"
       inkscape:connector-curvature="0" />
  </g>
</svg>
